<svg xmlns="http://www.w3.org/2000/svg" width="536" height="346" fill="none"><rect width="536" height="346" fill="#E8EAF6" rx="8"/><mask id="a" width="536" height="346" x="0" y="0" maskUnits="userSpaceOnUse" style="mask-type:luminance"><rect width="536" height="346" fill="#fff" rx="8"/></mask><g mask="url(#a)"><path fill="#242A45" d="M-3.53.197h547v59h-547z"/><g fill="#fff"><circle cx="38.47" cy="30.197" r="16" opacity=".245"/><circle cx="499.47" cy="30.197" r="16" opacity=".104"/><rect width="120" height="6" x="69.47" y="20.197" opacity=".75" rx="3"/><rect width="64" height="6" x="69.47" y="34.197" opacity=".25" rx="3"/></g><rect width="261" height="316" x="57" y="93" fill="#fff" rx="8"/><rect width="128" height="316" x="352" y="93" fill="#fff" rx="8"/><rect width="120" height="6" x="135.47" y="131.197" fill="#242A45" opacity=".5" rx="3"/></g><circle cx="104.47" cy="141.197" r="16" fill="#F98E5D"/><rect width="88" height="6" x="372.47" y="115.197" fill="#242A45" opacity=".25" rx="3"/><rect width="88" height="6" x="372.47" y="135.197" fill="#242A45" opacity=".25" rx="3"/><rect width="88" height="6" x="372.47" y="155.197" fill="#242A45" opacity=".25" rx="3"/><rect width="88" height="6" x="372.47" y="175.197" fill="#242A45" opacity=".25" rx="3"/><rect width="88" height="6" x="372.47" y="209.197" fill="#242A45" opacity=".25" rx="3"/><rect width="88" height="6" x="372.47" y="229.197" fill="#242A45" opacity=".25" rx="3"/><rect width="88" height="6" x="372.47" y="249.197" fill="#242A45" opacity=".25" rx="3"/><rect width="64" height="6" x="135.47" y="145.197" fill="#242A45" opacity=".25" rx="3"/><circle cx="104.47" cy="197.197" r="16" fill="#6AC6D6"/><rect width="120" height="6" x="135.47" y="187.197" fill="#242A45" opacity=".5" rx="3"/><rect width="64" height="6" x="135.47" y="201.197" fill="#242A45" opacity=".25" rx="3"/><circle cx="104.47" cy="253.197" r="16" fill="#A47ED4"/><rect width="120" height="6" x="135.47" y="243.197" fill="#242A45" opacity=".5" rx="3"/><rect width="64" height="6" x="135.47" y="257.197" fill="#242A45" opacity=".25" rx="3"/><circle cx="104.47" cy="309.197" r="16" fill="#EC7878"/><rect width="120" height="6" x="135.47" y="299.197" fill="#242A45" opacity=".5" rx="3"/><rect width="64" height="6" x="135.47" y="313.197" fill="#242A45" opacity=".25" rx="3"/></svg>