<svg width="313" height="209" viewBox="0 0 313 209" fill="none" xmlns="http://www.w3.org/2000/svg">
<rect x="1.11548" y="0.756058" width="310.769" height="206.488" rx="14" fill="#777777"/>
<rect x="2.19092" y="1.82872" width="308.742" height="204.806" rx="13" fill="url(#paint0_linear_0_1508)"/>
<rect opacity="0.1" x="30.1658" y="9.49985" width="253.488" height="189.731" rx="5" fill="#2A2A2A"/>
<rect x="12.4229" y="11.1088" width="288.187" height="185.571" rx="8" fill="#E8EAF6"/>
<mask id="mask0_0_1508" style="mask-type:luminance" maskUnits="userSpaceOnUse" x="12" y="11" width="289" height="186">
<rect x="12.4229" y="11.1088" width="288.187" height="185.571" rx="8" fill="white"/>
</mask>
<g mask="url(#mask0_0_1508)">
<rect x="10.5247" y="11.2145" width="294.101" height="31.6436" fill="#5267DF"/>
<ellipse opacity="0.244768" cx="33.1065" cy="27.3045" rx="8.6026" ry="8.58132" fill="white"/>
<ellipse opacity="0.104399" cx="280.969" cy="27.3045" rx="8.6026" ry="8.58132" fill="white"/>
<rect opacity="0.75" x="49.7739" y="21.9412" width="64.5195" height="3.21799" rx="1.609" fill="white"/>
<rect opacity="0.25" x="49.7739" y="29.4498" width="34.4104" height="3.21799" rx="1.609" fill="white"/>
<rect x="43.0696" y="60.9877" width="140.33" height="169.481" rx="8" fill="white"/>
<rect x="201.68" y="60.9877" width="68.8208" height="169.481" rx="8" fill="white"/>
<rect opacity="0.5" x="85.2598" y="81.474" width="64.5195" height="3.21799" rx="1.609" fill="#242A45"/>
</g>
<ellipse cx="68.6021" cy="85.9286" rx="8.60215" ry="8.57143" fill="#F98E5D"/>
<rect opacity="0.25" x="212.688" y="72" width="47.3118" height="3.21429" rx="1.60714" fill="#242A45"/>
<rect opacity="0.25" x="212.688" y="82.7143" width="47.3118" height="3.21429" rx="1.60714" fill="#242A45"/>
<rect opacity="0.25" x="212.688" y="93.4286" width="47.3118" height="3.21429" rx="1.60714" fill="#242A45"/>
<rect opacity="0.25" x="212.688" y="104.143" width="47.3118" height="3.21429" rx="1.60714" fill="#242A45"/>
<rect opacity="0.25" x="212.688" y="122.357" width="47.3118" height="3.21429" rx="1.60714" fill="#242A45"/>
<rect opacity="0.25" x="212.688" y="133.071" width="47.3118" height="3.21429" rx="1.60714" fill="#242A45"/>
<rect opacity="0.25" x="212.688" y="143.786" width="47.3118" height="3.21429" rx="1.60714" fill="#242A45"/>
<rect opacity="0.25" x="85.269" y="88.0714" width="34.4086" height="3.21429" rx="1.60714" fill="#242A45"/>
<ellipse cx="68.6228" cy="116.5" rx="8.62275" ry="8.5" fill="#6AC6D6"/>
<rect opacity="0.5" x="85.3291" y="111.188" width="64.6707" height="3.1875" rx="1.59375" fill="#242A45"/>
<rect opacity="0.25" x="85.3291" y="118.625" width="34.491" height="3.1875" rx="1.59375" fill="#242A45"/>
<ellipse cx="68.6228" cy="146.5" rx="8.62275" ry="8.5" fill="#A47ED4"/>
<rect opacity="0.5" x="85.3291" y="141.188" width="64.6707" height="3.1875" rx="1.59375" fill="#242A45"/>
<rect opacity="0.25" x="85.3291" y="148.625" width="34.491" height="3.1875" rx="1.59375" fill="#242A45"/>
<ellipse cx="68.6228" cy="176.5" rx="8.62275" ry="8.5" fill="#EC7878"/>
<rect opacity="0.5" x="85.3291" y="171.188" width="64.6707" height="3.1875" rx="1.59375" fill="#242A45"/>
<rect opacity="0.25" x="85.3291" y="178.625" width="34.491" height="3.1875" rx="1.59375" fill="#242A45"/>
<defs>
<linearGradient id="paint0_linear_0_1508" x1="456.807" y1="105.827" x2="274.781" y2="-168.574" gradientUnits="userSpaceOnUse">
<stop stop-color="#151515"/>
<stop offset="1" stop-color="#3D3D3D"/>
</linearGradient>
</defs>
</svg>
