<svg xmlns="http://www.w3.org/2000/svg" width="313" height="209" fill="none"><rect width="310.769" height="206.488" x="1.115" y=".756" fill="#777" rx="14"/><rect width="308.742" height="204.806" x="2.191" y="1.829" fill="url(#a)" rx="13"/><rect width="253.488" height="189.731" x="30.166" y="9.5" fill="#2A2A2A" opacity=".1" rx="5"/><rect width="288.187" height="185.571" x="12.423" y="11.109" fill="#E8EAF6" rx="8"/><mask id="b" width="289" height="186" x="12" y="11" maskUnits="userSpaceOnUse" style="mask-type:luminance"><rect width="288.187" height="185.571" x="12.423" y="11.109" fill="#fff" rx="8"/></mask><g mask="url(#b)"><path fill="#5267DF" d="M10.525 11.214h294.101v31.644H10.525z"/><ellipse cx="33.106" cy="27.305" fill="#fff" opacity=".245" rx="8.603" ry="8.581"/><ellipse cx="280.969" cy="27.305" fill="#fff" opacity=".104" rx="8.603" ry="8.581"/><rect width="64.519" height="3.218" x="49.774" y="21.941" fill="#fff" opacity=".75" rx="1.609"/><rect width="34.41" height="3.218" x="49.774" y="29.45" fill="#fff" opacity=".25" rx="1.609"/><rect width="140.33" height="169.481" x="43.07" y="60.988" fill="#fff" rx="8"/><rect width="68.821" height="169.481" x="201.68" y="60.988" fill="#fff" rx="8"/><rect width="64.519" height="3.218" x="85.26" y="81.474" fill="#242A45" opacity=".5" rx="1.609"/></g><ellipse cx="68.602" cy="85.929" fill="#F98E5D" rx="8.602" ry="8.571"/><rect width="47.312" height="3.214" x="212.688" y="72" fill="#242A45" opacity=".25" rx="1.607"/><rect width="47.312" height="3.214" x="212.688" y="82.714" fill="#242A45" opacity=".25" rx="1.607"/><rect width="47.312" height="3.214" x="212.688" y="93.429" fill="#242A45" opacity=".25" rx="1.607"/><rect width="47.312" height="3.214" x="212.688" y="104.143" fill="#242A45" opacity=".25" rx="1.607"/><rect width="47.312" height="3.214" x="212.688" y="122.357" fill="#242A45" opacity=".25" rx="1.607"/><rect width="47.312" height="3.214" x="212.688" y="133.071" fill="#242A45" opacity=".25" rx="1.607"/><rect width="47.312" height="3.214" x="212.688" y="143.786" fill="#242A45" opacity=".25" rx="1.607"/><rect width="34.409" height="3.214" x="85.269" y="88.071" fill="#242A45" opacity=".25" rx="1.607"/><ellipse cx="68.623" cy="116.5" fill="#6AC6D6" rx="8.623" ry="8.5"/><rect width="64.671" height="3.188" x="85.329" y="111.188" fill="#242A45" opacity=".5" rx="1.594"/><rect width="34.491" height="3.188" x="85.329" y="118.625" fill="#242A45" opacity=".25" rx="1.594"/><ellipse cx="68.623" cy="146.5" fill="#A47ED4" rx="8.623" ry="8.5"/><rect width="64.671" height="3.188" x="85.329" y="141.188" fill="#242A45" opacity=".5" rx="1.594"/><rect width="34.491" height="3.188" x="85.329" y="148.625" fill="#242A45" opacity=".25" rx="1.594"/><ellipse cx="68.623" cy="176.5" fill="#EC7878" rx="8.623" ry="8.5"/><rect width="64.671" height="3.188" x="85.329" y="171.188" fill="#242A45" opacity=".5" rx="1.594"/><rect width="34.491" height="3.188" x="85.329" y="178.625" fill="#242A45" opacity=".25" rx="1.594"/><defs><linearGradient id="a" x1="456.807" x2="274.781" y1="105.827" y2="-168.574" gradientUnits="userSpaceOnUse"><stop stop-color="#151515"/><stop offset="1" stop-color="#3D3D3D"/></linearGradient></defs></svg>