<svg xmlns="http://www.w3.org/2000/svg" width="478" height="408" fill="none"><rect width="350" height="346" fill="#E8EAF6" rx="8"/><mask id="a" width="350" height="346" x="0" y="0" maskUnits="userSpaceOnUse" style="mask-type:luminance"><rect width="350" height="346" fill="#fff" rx="8"/></mask><g mask="url(#a)"><path fill="#242A45" d="M-3.53.197h547v59h-547z"/><g fill="#fff"><circle cx="38.47" cy="30.197" r="16" opacity=".245"/><rect width="120" height="6" x="69.47" y="20.197" opacity=".75" rx="3"/><rect width="64" height="6" x="69.47" y="34.197" opacity=".25" rx="3"/></g></g><g filter="url(#b)"><rect width="200" height="255" x="27" y="138" fill="#fff" rx="8"/></g><rect width="101.317" height="6" x="95.683" y="173" fill="#242A45" opacity=".5" rx="3"/><circle cx="66" cy="183" r="16" fill="#5267DF"/><rect width="54.036" height="6" x="95.683" y="187" fill="#242A45" opacity=".25" rx="3"/><circle cx="66" cy="239" r="16" fill="#5267DF"/><rect width="101.317" height="6" x="95.683" y="229" fill="#242A45" opacity=".5" rx="3"/><rect width="54.036" height="6" x="95.683" y="243" fill="#242A45" opacity=".25" rx="3"/><circle cx="66" cy="295" r="16" fill="#5267DF"/><rect width="101.317" height="6" x="95.683" y="285" fill="#242A45" opacity=".5" rx="3"/><rect width="54.036" height="6" x="95.683" y="299" fill="#242A45" opacity=".25" rx="3"/><circle cx="66" cy="351" r="16" fill="#5267DF"/><rect width="101.317" height="6" x="95.683" y="341" fill="#242A45" opacity=".5" rx="3"/><rect width="54.036" height="6" x="95.683" y="355" fill="#242A45" opacity=".25" rx="3"/><g filter="url(#c)"><g filter="url(#d)"><rect width="200" height="255" x="251" y="138" fill="#fff" rx="8"/></g><rect width="101.317" height="6" x="319.683" y="173" fill="#242A45" opacity=".5" rx="3"/><circle cx="290" cy="183" r="16" fill="#5267DF"/><rect width="54.036" height="6" x="319.683" y="187" fill="#242A45" opacity=".25" rx="3"/><circle cx="290" cy="239" r="16" fill="#FA5959"/><rect width="101.317" height="6" x="319.683" y="229" fill="#242A45" opacity=".5" rx="3"/><rect width="54.036" height="6" x="319.683" y="243" fill="#242A45" opacity=".25" rx="3"/><circle cx="290" cy="295" r="16" fill="#5267DF"/><rect width="101.317" height="6" x="319.683" y="285" fill="#242A45" opacity=".5" rx="3"/><rect width="54.036" height="6" x="319.683" y="299" fill="#242A45" opacity=".25" rx="3"/><circle cx="290" cy="351" r="16" fill="#5267DF"/><rect width="101.317" height="6" x="319.683" y="341" fill="#242A45" opacity=".5" rx="3"/><rect width="54.036" height="6" x="319.683" y="355" fill="#242A45" opacity=".25" rx="3"/></g><rect width="237" height="34" x="27" y="85" fill="#fff" rx="8"/><g stroke="#5267DF" stroke-width="20"><circle cx="372" cy="169" r="67" fill="#495DCF" fill-opacity=".2"/><path stroke-linecap="round" stroke-linejoin="round" d="m419 217 49 49"/></g><defs><filter id="b" width="220" height="275" x="17" y="133" color-interpolation-filters="sRGB" filterUnits="userSpaceOnUse"><feFlood flood-opacity="0" result="BackgroundImageFix"/><feColorMatrix in="SourceAlpha" result="hardAlpha" values="0 0 0 0 0 0 0 0 0 0 0 0 0 0 0 0 0 0 127 0"/><feOffset dy="5"/><feGaussianBlur stdDeviation="5"/><feColorMatrix values="0 0 0 0 0.285333 0 0 0 0 0.363695 0 0 0 0 0.811481 0 0 0 0.0830693 0"/><feBlend in2="BackgroundImageFix" result="effect1_dropShadow_0_967"/><feBlend in="SourceGraphic" in2="effect1_dropShadow_0_967" result="shape"/></filter><filter id="c" width="220" height="275" x="241" y="133" color-interpolation-filters="sRGB" filterUnits="userSpaceOnUse"><feFlood flood-opacity="0" result="BackgroundImageFix"/><feColorMatrix in="SourceAlpha" result="hardAlpha" values="0 0 0 0 0 0 0 0 0 0 0 0 0 0 0 0 0 0 127 0"/><feOffset dy="5"/><feGaussianBlur stdDeviation="5"/><feColorMatrix values="0 0 0 0 0.285333 0 0 0 0 0.363695 0 0 0 0 0.811481 0 0 0 0.0830693 0"/><feBlend in2="BackgroundImageFix" result="effect1_dropShadow_0_967"/><feBlend in="SourceGraphic" in2="effect1_dropShadow_0_967" result="shape"/></filter><filter id="d" width="220" height="275" x="241" y="133" color-interpolation-filters="sRGB" filterUnits="userSpaceOnUse"><feFlood flood-opacity="0" result="BackgroundImageFix"/><feColorMatrix in="SourceAlpha" result="hardAlpha" values="0 0 0 0 0 0 0 0 0 0 0 0 0 0 0 0 0 0 127 0"/><feOffset dy="5"/><feGaussianBlur stdDeviation="5"/><feColorMatrix values="0 0 0 0 0.285333 0 0 0 0 0.363695 0 0 0 0 0.811481 0 0 0 0.0830693 0"/><feBlend in2="BackgroundImageFix" result="effect1_dropShadow_0_967"/><feBlend in="SourceGraphic" in2="effect1_dropShadow_0_967" result="shape"/></filter></defs></svg>